<svg xmlns="http://www.w3.org/2000/svg" version="1.1" viewBox="-5.0 -10.0 110.0 135.0">
 <path d="m22.836 14.07h-13.504c-2.1758 0-3.9531 1.7812-3.9531 3.957v11.488h89.238v-11.488c0-2.1797-1.7773-3.957-3.9531-3.957h-13.445v4.0547c0 3.3477-2.7383 6.0781-6.082 6.0781s-6.0742-2.7305-6.0742-6.0781v-4.0547h-30.07v4.0547c0 3.3477-2.7305 6.0781-6.082 6.0781-3.3516 0-6.0742-2.7305-6.0742-6.0781zm54.383-2.8789h13.445c3.7617 0 6.8359 3.0703 6.8359 6.8359v72.633c0 3.7656-3.0742 6.8359-6.8359 6.8359l-81.328 0.003906c-3.7617 0-6.8359-3.0703-6.8359-6.8359l-0.003906-72.633c0-3.7656 3.0742-6.8359 6.8359-6.8359h13.504v-2.6133c0-3.3477 2.7305-6.0781 6.0742-6.0781s6.082 2.7344 6.082 6.0781v2.6133h30.07v-2.6133c0-3.3477 2.7305-6.0781 6.0742-6.0781s6.082 2.7344 6.082 6.0781v2.6133zm-9.2812-2.6133c0-0.87891 0.36328-1.6797 0.94531-2.2578 2.0352-2.0352 5.4531-0.54297 5.4531 2.2578v9.5469c0 0.87891-0.36328 1.6797-0.9375 2.2578-2.043 2.0352-5.4609 0.54297-5.4609-2.2578zm-46.133 63.051c0.79297 0 1.4336-0.64453 1.4336-1.4375v-11.793c0-0.79688-0.64062-1.4375-1.4336-1.4375h-11.793c-0.80078 0-1.4414 0.64453-1.4414 1.4375v11.793c0 0.79688 0.64063 1.4375 1.4414 1.4375zm-10.359-2.8789h8.918v-8.9141h-8.918zm55.5 2.8789c0.79297 0 1.4414-0.64453 1.4414-1.4375v-11.793c0-0.79688-0.64844-1.4375-1.4414-1.4375h-11.793c-0.79297 0-1.4414 0.64453-1.4414 1.4375v11.793c0 0.79688 0.64844 1.4375 1.4414 1.4375zm-10.352-2.8789h8.9102v-8.9141h-8.9102zm33.395 2.8789c0.79297 0 1.4414-0.64453 1.4414-1.4375v-11.793c0-0.79688-0.64844-1.4375-1.4414-1.4375h-11.793c-0.79297 0-1.4336 0.64453-1.4336 1.4375v11.793c0 0.79688 0.64062 1.4375 1.4336 1.4375zm-10.352-2.8789h8.918v-8.9141h-8.918zm10.352-17.012c0.79297 0 1.4414-0.64453 1.4414-1.4414v-11.793c0-0.79688-0.64844-1.4414-1.4414-1.4414h-11.793c-0.79297 0-1.4336 0.64453-1.4336 1.4414v11.793c0 0.79688 0.64062 1.4414 1.4336 1.4414zm-10.352-2.8789h8.918v-8.9141h-8.918zm-12.691 2.8789c0.79297 0 1.4414-0.64453 1.4414-1.4414v-11.793c0-0.79688-0.64844-1.4414-1.4414-1.4414h-11.793c-0.79297 0-1.4414 0.64453-1.4414 1.4414v11.793c0 0.79688 0.64844 1.4414 1.4414 1.4414zm-10.352-2.8789h8.9102v-8.9141h-8.9102zm-12.691 2.8789c0.79297 0 1.4336-0.64453 1.4336-1.4414v-11.793c0-0.79688-0.64063-1.4414-1.4336-1.4414h-11.793c-0.80078 0-1.4414 0.64453-1.4414 1.4414v11.793c0 0.79688 0.64062 1.4414 1.4414 1.4414zm-10.359-2.8789h8.918v-8.9141h-8.918zm-11.734 2.8789c0.79297 0 1.4336-0.64453 1.4336-1.4414v-11.793c0-0.79688-0.64063-1.4414-1.4336-1.4414h-11.793c-0.80078 0-1.4414 0.64453-1.4414 1.4414v11.793c0 0.79688 0.64062 1.4414 1.4414 1.4414zm-10.359-2.8789h8.918v-8.9141h-8.918zm32.84 18.586v2.2148h-10.742v-10.734h8.5664c0.79297 0 1.4336-0.64453 1.4336-1.4375s-0.64062-1.4414-1.4336-1.4414h-9.9961c-0.80078 0-1.4414 0.64453-1.4414 1.4414v13.613c0 0.79297 0.64062 1.4375 1.4414 1.4375h13.609c0.80078 0 1.4414-0.64453 1.4414-1.4375v-3.6523c0-0.79688-0.64062-1.4375-1.4414-1.4375-0.79297 0-1.4336 0.64453-1.4336 1.4375zm3.3516-10.301-7.5547 7.5469-2.7305-2.7266c-0.5625-0.55859-1.4727-0.55859-2.0352 0.007812-0.55469 0.5625-0.55469 1.4727 0.007813 2.0312l3.7422 3.7383c0.5625 0.55859 1.4609 0.55859 2.0234 0l8.5664-8.5586c0.5625-0.55859 0.5625-1.4688 0.007813-2.0312-0.5625-0.5625-1.4727-0.5625-2.0352-0.007813zm19.309 34.371c0.79297 0 1.4414-0.64453 1.4414-1.4375v-11.793c0-0.79688-0.64844-1.4375-1.4414-1.4375h-11.793c-0.79297 0-1.4414 0.64453-1.4414 1.4375v11.793c0 0.79688 0.64844 1.4375 1.4414 1.4375zm-10.352-2.8789h8.9102v-8.9141h-8.9102zm-12.691 2.8789c0.79297 0 1.4336-0.64453 1.4336-1.4375v-11.793c0-0.79688-0.64062-1.4375-1.4336-1.4375h-11.793c-0.80078 0-1.4414 0.64453-1.4414 1.4375v11.793c0 0.79688 0.64062 1.4375 1.4414 1.4375zm-10.359-2.8789h8.918v-8.9141h-8.918zm-11.734 2.8789c0.79297 0 1.4336-0.64453 1.4336-1.4375v-11.793c0-0.79688-0.64062-1.4375-1.4336-1.4375h-11.793c-0.80078 0-1.4414 0.64453-1.4414 1.4375v11.793c0 0.79688 0.64062 1.4375 1.4414 1.4375zm-10.359-2.8789h8.918v-8.9141h-8.918zm14.258-80.059c0-0.87891 0.36328-1.6797 0.94531-2.2578 2.0352-2.0352 5.4531-0.54297 5.4531 2.2578v9.5469c0 0.87891-0.36328 1.6797-0.9375 2.2578-2.0352 2.0352-5.4609 0.54297-5.4609-2.2578zm-20.328 23.82v58.266c0 2.1797 1.7773 3.957 3.9531 3.957h81.332c2.1758 0 3.9531-1.7812 3.9531-3.957v-58.266z" fill-rule="evenodd"/>
</svg>