<svg xmlns="http://www.w3.org/2000/svg" version="1.1" viewBox="-5.0 -10.0 110.0 135.0">
 <path d="m71.648 21h-3.1992c-0.69922 0-1.3008 0.60156-1.3008 1.3008s0.60156 1.3008 1.3008 1.3008h3.1992c1.3984 0 2.6016 1.3008 2.6016 3v57.801c0 1.6992-1.1992 3-2.6016 3l-43.199-0.003906c-1.3984 0-2.6016-1.3984-2.6016-3v-57.797c0-1.6016 1.1992-3 2.6016-3h3.1992c0.69922 0 1.3008-0.60156 1.3008-1.3008s-0.60156-1.3008-1.3008-1.3008h-3.1992c-2.8984 0-5.1992 2.5-5.1992 5.6016v57.801c0 3.0977 2.2969 5.5977 5.1992 5.5977h43.102c2.8984 0 5.1992-2.5 5.1992-5.6016v-57.797c0.097656-3.1016-2.3008-5.6016-5.1016-5.6016zm-33.5 5.6016h23.801c2.1016 0 3.8008-1.6992 3.8008-3.8008v-2.8008c0-2.1016-1.6992-3.8008-3.8008-3.8008h-3.1016c-0.80078 0-1.5-0.39844-1.6992-1.1016-1-3.0977-3.8984-5.0977-7.1016-5.0977-3.1992 0-6.1016 2.1016-7.1016 5.1016-0.19922 0.69922-0.89844 1.1016-1.6992 1.1016h-3.1016c-2.1016 0-3.8008 1.6992-3.8008 3.8008v2.8984c0.003906 1.9961 1.7031 3.6992 3.8047 3.6992zm-1.1992-6.6016c0-0.69922 0.60156-1.1992 1.1992-1.1992h3.1016c1.8984 0 3.6016-1.1016 4.1992-2.8984 0.69922-2 2.5-3.3008 4.6016-3.3008 2.1016 0 4 1.3008 4.6992 3.3008 0.60156 1.6992 2.1992 2.8984 4.1992 2.8984h3.1016c0.69922 0 1.1992 0.5 1.1992 1.1992v2.1992 0.10156 0.10156 0.39844c0 0.69922-0.5 1.1992-1.1992 1.1992h-23.902c-0.60156 0-1.1992-0.5-1.1992-1.1992v-2.8008zm13.098-0.89844c1.3984 0 2.5-1.1016 2.5-2.5 0-1.3984-1.1016-2.5-2.5-2.5s-2.5 1.1016-2.5 2.5c0 1.2969 1.1016 2.5 2.5 2.5zm17.703 15.699h-20c-0.69922 0-1.3008 0.60156-1.3008 1.3008 0 0.69922 0.60156 1.3008 1.3008 1.3008h20c0.69922 0 1.3008-0.60156 1.3008-1.3008-0.003906-0.70312-0.60156-1.3008-1.3008-1.3008zm-5.4023 9.6992c0.5 0 1-0.60156 1-1.3008s-0.39844-1.3008-1-1.3008h-15c-0.5 0-1 0.60156-1 1.3008s0.39844 1.3008 1 1.3008zm5.4023 6.1016h-20c-0.69922 0-1.3008 0.60156-1.3008 1.3008 0 0.69922 0.60156 1.3008 1.3008 1.3008h20c0.69922 0 1.3008-0.60156 1.3008-1.3008-0.003906-0.70312-0.60156-1.3008-1.3008-1.3008zm-5.4023 9.7969c0.5 0 1-0.60156 1-1.3008 0-0.69922-0.39844-1.3008-1-1.3008h-15c-0.5 0-1 0.60156-1 1.3008 0 0.69922 0.39844 1.3008 1 1.3008zm6.6992 7.4023c0-0.69922-0.60156-1.3008-1.3008-1.3008h-20c-0.69922 0-1.3008 0.60156-1.3008 1.3008s0.60156 1.3008 1.3008 1.3008h20c0.70312 0 1.3008-0.60156 1.3008-1.3008zm-21.598 5.8008c-0.5 0-1 0.60156-1 1.3008 0 0.69922 0.39844 1.3008 1 1.3008h15c0.5 0 1-0.60156 1-1.3008 0-0.69922-0.39844-1.3008-1-1.3008zm-6.6992-37.5c0-0.69922-0.60156-1.3008-1.3008-1.3008h-7.1016c-0.69922 0-1.3008 0.60156-1.3008 1.3008v7.1016c0 0.69922 0.60156 1.3008 1.3008 1.3008h7.1016c0.69922 0 1.3008-0.60156 1.3008-1.3008zm-2.6016 5.7969h-4.5v-4.5h4.5zm2.6016 10c0-0.69922-0.60156-1.3008-1.3008-1.3008h-7.1016c-0.69922 0-1.3008 0.60156-1.3008 1.3008v7.1016c0 0.69922 0.60156 1.3008 1.3008 1.3008h7.1016c0.69922 0 1.3008-0.60156 1.3008-1.3008zm-2.6016 5.9023h-4.5v-4.5h4.5zm1.3008 8.6992h-7.1016c-0.69922 0-1.3008 0.60156-1.3008 1.3008v7.1016c0 0.69922 0.60156 1.3008 1.3008 1.3008h7.1016c0.69922 0 1.3008-0.60156 1.3008-1.3008v-7.1016c0-0.69922-0.60156-1.3008-1.3008-1.3008zm-1.3008 7.1016h-4.5v-4.5h4.5z"/>
</svg>