<svg xmlns="http://www.w3.org/2000/svg" version="1.1" viewBox="-5.0 -10.0 110.0 135.0">
 <path d="m87.695 77.414c0.89063 0 1.6133 0.72266 1.6133 1.6133s-0.72266 1.6133-1.6133 1.6133h-10.355c-0.89062 0-1.6133-0.72266-1.6133-1.6133s0.72266-1.6133 1.6133-1.6133zm-47.793-3.3516 17.414-30.16c-3.5977-1.6602-7.5273-2-11.184-1.168 0.29688 2.0195 0.30078 4.0938-0.011718 6.1328-0.375 2.4609-1.2148 4.9062-2.543 7.2109-1.3281 2.3008-3.0273 4.25-4.9727 5.8047-1.6211 1.2969-3.4102 2.332-5.3086 3.0859 1.1055 3.5781 3.3633 6.8125 6.6016 9.0977zm20.195-28.559-17.414 30.16c3.6016 1.6602 7.5273 2 11.184 1.168-0.29688-2.0234-0.30078-4.0898 0.011718-6.1289 0.375-2.4609 1.2148-4.9102 2.543-7.2109 1.3242-2.2969 3.0234-4.2461 4.9727-5.8047 1.6172-1.2969 3.4102-2.332 5.3086-3.082-1.1094-3.5781-3.3633-6.8125-6.6055-9.1016zm7.2773 12.301c-1.4102 0.61328-2.75 1.4141-3.9648 2.3867-1.6484 1.3203-3.0859 2.9688-4.2031 4.9062-1.1133 1.9258-1.8203 3.9922-2.1406 6.082-0.23438 1.5508-0.26172 3.1094-0.089844 4.6328 3.3203-1.4414 6.2227-3.9219 8.168-7.293 1.9453-3.3672 2.6406-7.1211 2.2266-10.715zm-34.746 3.9531c1.4102-0.61328 2.75-1.4141 3.9648-2.3867 1.6523-1.3242 3.0898-2.9688 4.2031-4.8984 1.1133-1.9297 1.8203-4 2.1406-6.0898 0.23438-1.5508 0.26172-3.1094 0.089844-4.6367-3.3164 1.4414-6.2227 3.9219-8.168 7.293-1.9453 3.3711-2.6406 7.125-2.2305 10.719zm-0.55469-12.332c2.8594-4.9492 7.457-8.2773 12.57-9.6445 5.1133-1.3711 10.758-0.78906 15.711 2.0703 4.9492 2.8555 8.2773 7.457 9.6445 12.57 1.3711 5.1133 0.78906 10.758-2.0703 15.711-2.8555 4.9492-7.457 8.2773-12.57 9.6445-5.1133 1.3711-10.758 0.78906-15.711-2.0703-4.9492-2.8555-8.2773-7.457-9.6445-12.57-1.3711-5.1133-0.78906-10.758 2.0703-15.711zm65.43 7.1094c-10.48-5.3867-18.164-13.879-22.289-23.676-3.8906-9.2344-4.6133-19.621-1.5508-29.66h-5.7148c0.058593 5.1055-1.3047 10.125-3.9375 14.793-2.8867 5.1172-7.3086 9.8086-14.945 13.723-5.7578-3.9141-10.18-8.6016-13.066-13.723-2.6367-4.668-3.9961-9.6875-3.9375-14.793h-5.7148c3.0625 10.039 2.3359 20.43-1.5508 29.66-4.125 9.7969-11.809 18.289-22.289 23.676v30.961h95v-30.961zm-20.727-52.508c-2.8789 9.3359-2.2148 19 1.4023 27.586 3.6445 8.6523 10.289 16.223 19.328 21.27v-9.5586c-6.1211-3.5859-10.621-9.043-13.074-15.297-2.4141-6.1602-2.8477-13.105-0.89453-19.801l-6.7617-4.2031zm-74.273 48.855c9.0391-5.0469 15.684-12.617 19.328-21.27 3.6133-8.5859 4.2812-18.25 1.4023-27.586l-6.7617 4.2031c1.9531 6.6992 1.5195 13.641-0.89453 19.801-2.4492 6.25-6.9492 11.707-13.074 15.297v9.5586zm47.5-24.43c4.9219-3.5039 8.7109-7.6055 11.211-12.035 2.3555-4.1758 3.5664-8.6602 3.5117-13.219h-29.449c-0.058594 4.5586 1.1562 9.043 3.5156 13.219 2.5 4.4297 6.2891 8.5312 11.211 12.035zm47.5 62.27h-95v6.0703h95z"/>
</svg>