<svg xmlns="http://www.w3.org/2000/svg">
  <defs>
    <symbol id="icon-basketball" viewBox="0 0 100 125">
      <path d="M12.588,83.168L34.367,61.39C24.637,52.818,12.182,48.964,0,49.817C-0.043,61.741,4.156,73.674,12.588,83.168z"/>
      <path d="M50,45.757l7.135-7.135c-9.65-10.798-14.091-24.629-13.344-38.227c-9.729,1.21-19.164,5.272-26.959,12.195L50,45.757z"/>
      <path d="M45.758,50l-33.17-33.168C5.666,24.628,1.605,34.063,0.395,43.79c13.599-0.745,27.43,3.694,38.228,13.345L45.758,50z"/>
      <path d="M61.39,34.368L83.168,12.59C73.674,4.156,61.741-0.043,49.817,0.001C48.963,12.184,52.818,24.638,61.39,34.368z"/>
      <path d="M87.411,16.833L65.632,38.611C75.363,47.182,87.817,51.037,100,50.183C100.043,38.259,95.844,26.327,87.411,16.833z"/>
      <path d="M61.378,42.865L54.242,50l33.169,33.167c6.923-7.795,10.983-17.23,12.194-26.957C86.007,56.956,72.176,52.516,61.378,42.865z"/>
      <path d="M16.832,87.411c9.495,8.434,21.427,12.632,33.352,12.589c0.853-12.183-3.002-24.637-11.573-34.367L16.832,87.411z"/>
      <path d="M50,54.244l-7.136,7.135c9.651,10.797,14.091,24.629,13.347,38.227c9.726-1.211,19.162-5.271,26.957-12.194L50,54.244z"/>
    </symbol>

    <symbol id="icon-jersey" viewBox="-5.0 -10.0 110.0 135.0">
      <path d="m87.695 77.414c0.89063 0 1.6133 0.72266 1.6133 1.6133s-0.72266 1.6133-1.6133 1.6133h-10.355c-0.89062 0-1.6133-0.72266-1.6133-1.6133s0.72266-1.6133 1.6133-1.6133zm-47.793-3.3516 17.414-30.16c-3.5977-1.6602-7.5273-2-11.184-1.168 0.29688 2.0195 0.30078 4.0938-0.011718 6.1328-0.375 2.4609-1.2148 4.9062-2.543 7.2109-1.3281 2.3008-3.0273 4.25-4.9727 5.8047-1.6211 1.2969-3.4102 2.332-5.3086 3.0859 1.1055 3.5781 3.3633 6.8125 6.6016 9.0977zm20.195-28.559-17.414 30.16c3.6016 1.6602 7.5273 2 11.184 1.168-0.29688-2.0234-0.30078-4.0898 0.011718-6.1289 0.375-2.4609 1.2148-4.9102 2.543-7.2109 1.3242-2.2969 3.0234-4.2461 4.9727-5.8047 1.6172-1.2969 3.4102-2.332 5.3086-3.082-1.1094-3.5781-3.3633-6.8125-6.6055-9.1016zm7.2773 12.301c-1.4102 0.61328-2.75 1.4141-3.9648 2.3867-1.6484 1.3203-3.0859 2.9688-4.2031 4.9062-1.1133 1.9258-1.8203 3.9922-2.1406 6.082-0.23438 1.5508-0.26172 3.1094-0.089844 4.6328 3.3203-1.4414 6.2227-3.9219 8.168-7.293 1.9453-3.3672 2.6406-7.1211 2.2266-10.715zm-34.746 3.9531c1.4102-0.61328 2.75-1.4141 3.9648-2.3867 1.6523-1.3242 3.0898-2.9688 4.2031-4.8984 1.1133-1.9297 1.8203-4 2.1406-6.0898 0.23438-1.5508 0.26172-3.1094 0.089844-4.6367-3.3164 1.4414-6.2227 3.9219-8.168 7.293-1.9453 3.3711-2.6406 7.125-2.2305 10.719zm-0.55469-12.332c2.8594-4.9492 7.457-8.2773 12.57-9.6445 5.1133-1.3711 10.758-0.78906 15.711 2.0703 4.9492 2.8555 8.2773 7.457 9.6445 12.57 1.3711 5.1133 0.78906 10.758-2.0703 15.711-2.8555 4.9492-7.457 8.2773-12.57 9.6445-5.1133 1.3711-10.758 0.78906-15.711-2.0703-4.9492-2.8555-8.2773-7.457-9.6445-12.57-1.3711-5.1133-0.78906-10.758 2.0703-15.711zm65.43 7.1094c-10.48-5.3867-18.164-13.879-22.289-23.676-3.8906-9.2344-4.6133-19.621-1.5508-29.66h-5.7148c0.058593 5.1055-1.3047 10.125-3.9375 14.793-2.8867 5.1172-7.3086 9.8086-14.945 13.723-5.7578-3.9141-10.18-8.6016-13.066-13.723-2.6367-4.668-3.9961-9.6875-3.9375-14.793h-5.7148c3.0625 10.039 2.3359 20.43-1.5508 29.66-4.125 9.7969-11.809 18.289-22.289 23.676v30.961h95v-30.961zm-20.727-52.508c-2.8789 9.3359-2.2148 19 1.4023 27.586 3.6445 8.6523 10.289 16.223 19.328 21.27v-9.5586c-6.1211-3.5859-10.621-9.043-13.074-15.297-2.4141-6.1602-2.8477-13.105-0.89453-19.801l-6.7617-4.2031zm-74.273 48.855c9.0391-5.0469 15.684-12.617 19.328-21.27 3.6133-8.5859 4.2812-18.25 1.4023-27.586l-6.7617 4.2031c1.9531 6.6992 1.5195 13.641-0.89453 19.801-2.4492 6.25-6.9492 11.707-13.074 15.297v9.5586zm47.5-24.43c4.9219-3.5039 8.7109-7.6055 11.211-12.035 2.3555-4.1758 3.5664-8.6602 3.5117-13.219h-29.449c-0.058594 4.5586 1.1562 9.043 3.5156 13.219 2.5 4.4297 6.2891 8.5312 11.211 12.035zm47.5 62.27h-95v6.0703h95z"/>
    </symbol>

    <symbol id="icon-clipboard" viewBox="-5.0 -10.0 110.0 135.0">
      <path d="m71.648 21h-3.1992c-0.69922 0-1.3008 0.60156-1.3008 1.3008s0.60156 1.3008 1.3008 1.3008h3.1992c1.3984 0 2.6016 1.3008 2.6016 3v57.801c0 1.6992-1.1992 3-2.6016 3l-43.199-0.003906c-1.3984 0-2.6016-1.3984-2.6016-3v-57.797c0-1.6016 1.1992-3 2.6016-3h3.1992c0.69922 0 1.3008-0.60156 1.3008-1.3008s-0.60156-1.3008-1.3008-1.3008h-3.1992c-2.8984 0-5.1992 2.5-5.1992 5.6016v57.801c0 3.0977 2.2969 5.5977 5.1992 5.5977h43.102c2.8984 0 5.1992-2.5 5.1992-5.6016v-57.797c0.097656-3.1016-2.3008-5.6016-5.1016-5.6016zm-33.5 5.6016h23.801c2.1016 0 3.8008-1.6992 3.8008-3.8008v-2.8008c0-2.1016-1.6992-3.8008-3.8008-3.8008h-3.1016c-0.80078 0-1.5-0.39844-1.6992-1.1016-1-3.0977-3.8984-5.0977-7.1016-5.0977-3.1992 0-6.1016 2.1016-7.1016 5.1016-0.19922 0.69922-0.89844 1.1016-1.6992 1.1016h-3.1016c-2.1016 0-3.8008 1.6992-3.8008 3.8008v2.8984c0.003906 1.9961 1.7031 3.6992 3.8047 3.6992zm-1.1992-6.6016c0-0.69922 0.60156-1.1992 1.1992-1.1992h3.1016c1.8984 0 3.6016-1.1016 4.1992-2.8984 0.69922-2 2.5-3.3008 4.6016-3.3008 2.1016 0 4 1.3008 4.6992 3.3008 0.60156 1.6992 2.1992 2.8984 4.1992 2.8984h3.1016c0.69922 0 1.1992 0.5 1.1992 1.1992v2.1992 0.10156 0.10156 0.39844c0 0.69922-0.5 1.1992-1.1992 1.1992h-23.902c-0.60156 0-1.1992-0.5-1.1992-1.1992v-2.8008zm13.098-0.89844c1.3984 0 2.5-1.1016 2.5-2.5 0-1.3984-1.1016-2.5-2.5-2.5s-2.5 1.1016-2.5 2.5c0 1.2969 1.1016 2.5 2.5 2.5zm17.703 15.699h-20c-0.69922 0-1.3008 0.60156-1.3008 1.3008 0 0.69922 0.60156 1.3008 1.3008 1.3008h20c0.69922 0 1.3008-0.60156 1.3008-1.3008-0.003906-0.70312-0.60156-1.3008-1.3008-1.3008zm-5.4023 9.6992c0.5 0 1-0.60156 1-1.3008s-0.39844-1.3008-1-1.3008h-15c-0.5 0-1 0.60156-1 1.3008s0.39844 1.3008 1 1.3008zm5.4023 6.1016h-20c-0.69922 0-1.3008 0.60156-1.3008 1.3008 0 0.69922 0.60156 1.3008 1.3008 1.3008h20c0.69922 0 1.3008-0.60156 1.3008-1.3008-0.003906-0.70312-0.60156-1.3008-1.3008-1.3008zm-5.4023 9.7969c0.5 0 1-0.60156 1-1.3008 0-0.69922-0.39844-1.3008-1-1.3008h-15c-0.5 0-1 0.60156-1 1.3008 0 0.69922 0.39844 1.3008 1 1.3008zm6.6992 7.4023c0-0.69922-0.60156-1.3008-1.3008-1.3008h-20c-0.69922 0-1.3008 0.60156-1.3008 1.3008s0.60156 1.3008 1.3008 1.3008h20c0.70312 0 1.3008-0.60156 1.3008-1.3008zm-21.598 5.8008c-0.5 0-1 0.60156-1 1.3008 0 0.69922 0.39844 1.3008 1 1.3008h15c0.5 0 1-0.60156 1-1.3008 0-0.69922-0.39844-1.3008-1-1.3008zm-6.6992-37.5c0-0.69922-0.60156-1.3008-1.3008-1.3008h-7.1016c-0.69922 0-1.3008 0.60156-1.3008 1.3008v7.1016c0 0.69922 0.60156 1.3008 1.3008 1.3008h7.1016c0.69922 0 1.3008-0.60156 1.3008-1.3008zm-2.6016 5.7969h-4.5v-4.5h4.5zm2.6016 10c0-0.69922-0.60156-1.3008-1.3008-1.3008h-7.1016c-0.69922 0-1.3008 0.60156-1.3008 1.3008v7.1016c0 0.69922 0.60156 1.3008 1.3008 1.3008h7.1016c0.69922 0 1.3008-0.60156 1.3008-1.3008zm-2.6016 5.9023h-4.5v-4.5h4.5zm1.3008 8.6992h-7.1016c-0.69922 0-1.3008 0.60156-1.3008 1.3008v7.1016c0 0.69922 0.60156 1.3008 1.3008 1.3008h7.1016c0.69922 0 1.3008-0.60156 1.3008-1.3008v-7.1016c0-0.69922-0.60156-1.3008-1.3008-1.3008zm-1.3008 7.1016h-4.5v-4.5h4.5z"/>
    </symbol>

    <symbol id="icon-calendar" viewBox="-5.0 -10.0 110.0 135.0">
      <path d="m22.836 14.07h-13.504c-2.1758 0-3.9531 1.7812-3.9531 3.957v11.488h89.238v-11.488c0-2.1797-1.7773-3.957-3.9531-3.957h-13.445v4.0547c0 3.3477-2.7383 6.0781-6.082 6.0781s-6.0742-2.7305-6.0742-6.0781v-4.0547h-30.07v4.0547c0 3.3477-2.7305 6.0781-6.082 6.0781-3.3516 0-6.0742-2.7305-6.0742-6.0781zm54.383-2.8789h13.445c3.7617 0 6.8359 3.0703 6.8359 6.8359v72.633c0 3.7656-3.0742 6.8359-6.8359 6.8359l-81.328 0.003906c-3.7617 0-6.8359-3.0703-6.8359-6.8359l-0.003906-72.633c0-3.7656 3.0742-6.8359 6.8359-6.8359h13.504v-2.6133c0-3.3477 2.7305-6.0781 6.0742-6.0781s6.082 2.7344 6.082 6.0781v2.6133h30.07v-2.6133c0-3.3477 2.7305-6.0781 6.0742-6.0781s6.082 2.7344 6.082 6.0781v2.6133zm-9.2812-2.6133c0-0.87891 0.36328-1.6797 0.94531-2.2578 2.0352-2.0352 5.4531-0.54297 5.4531 2.2578v9.5469c0 0.87891-0.36328 1.6797-0.9375 2.2578-2.043 2.0352-5.4609 0.54297-5.4609-2.2578zm-46.133 63.051c0.79297 0 1.4336-0.64453 1.4336-1.4375v-11.793c0-0.79688-0.64062-1.4375-1.4336-1.4375h-11.793c-0.80078 0-1.4414 0.64453-1.4414 1.4375v11.793c0 0.79688 0.64063 1.4375 1.4414 1.4375zm-10.359-2.8789h8.918v-8.9141h-8.918zm55.5 2.8789c0.79297 0 1.4414-0.64453 1.4414-1.4375v-11.793c0-0.79688-0.64844-1.4375-1.4414-1.4375h-11.793c-0.79297 0-1.4414 0.64453-1.4414 1.4375v11.793c0 0.79688 0.64844 1.4375 1.4414 1.4375zm-10.352-2.8789h8.9102v-8.9141h-8.9102zm33.395 2.8789c0.79297 0 1.4414-0.64453 1.4414-1.4375v-11.793c0-0.79688-0.64844-1.4375-1.4414-1.4375h-11.793c-0.79297 0-1.4336 0.64453-1.4336 1.4375v11.793c0 0.79688 0.64062 1.4375 1.4336 1.4375zm-10.352-2.8789h8.918v-8.9141h-8.918zm10.352-17.012c0.79297 0 1.4414-0.64453 1.4414-1.4414v-11.793c0-0.79688-0.64844-1.4414-1.4414-1.4414h-11.793c-0.79297 0-1.4336 0.64453-1.4336 1.4414v11.793c0 0.79688 0.64062 1.4414 1.4336 1.4414zm-10.352-2.8789h8.918v-8.9141h-8.918zm-12.691 2.8789c0.79297 0 1.4414-0.64453 1.4414-1.4414v-11.793c0-0.79688-0.64844-1.4414-1.4414-1.4414h-11.793c-0.79297 0-1.4414 0.64453-1.4414 1.4414v11.793c0 0.79688 0.64844 1.4414 1.4414 1.4414zm-10.352-2.8789h8.9102v-8.9141h-8.9102zm-12.691 2.8789c0.79297 0 1.4336-0.64453 1.4336-1.4414v-11.793c0-0.79688-0.64063-1.4414-1.4336-1.4414h-11.793c-0.80078 0-1.4414 0.64453-1.4414 1.4414v11.793c0 0.79688 0.64062 1.4414 1.4414 1.4414zm-10.359-2.8789h8.918v-8.9141h-8.918zm-11.734 2.8789c0.79297 0 1.4336-0.64453 1.4336-1.4414v-11.793c0-0.79688-0.64063-1.4414-1.4336-1.4414h-11.793c-0.80078 0-1.4414 0.64453-1.4414 1.4414v11.793c0 0.79688 0.64062 1.4414 1.4414 1.4414zm-10.359-2.8789h8.918v-8.9141h-8.918zm32.84 18.586v2.2148h-10.742v-10.734h8.5664c0.79297 0 1.4336-0.64453 1.4336-1.4375s-0.64062-1.4414-1.4336-1.4414h-9.9961c-0.80078 0-1.4414 0.64453-1.4414 1.4414v13.613c0 0.79297 0.64062 1.4375 1.4414 1.4375h13.609c0.80078 0 1.4414-0.64453 1.4414-1.4375v-3.6523c0-0.79688-0.64062-1.4375-1.4414-1.4375-0.79297 0-1.4336 0.64453-1.4336 1.4375zm3.3516-10.301-7.5547 7.5469-2.7305-2.7266c-0.5625-0.55859-1.4727-0.55859-2.0352 0.007812-0.55469 0.5625-0.55469 1.4727 0.007813 2.0312l3.7422 3.7383c0.5625 0.55859 1.4609 0.55859 2.0234 0l8.5664-8.5586c0.5625-0.55859 0.5625-1.4688 0.007813-2.0312-0.5625-0.5625-1.4727-0.5625-2.0352-0.007813zm19.309 34.371c0.79297 0 1.4414-0.64453 1.4414-1.4375v-11.793c0-0.79688-0.64844-1.4375-1.4414-1.4375h-11.793c-0.79297 0-1.4414 0.64453-1.4414 1.4375v11.793c0 0.79688 0.64844 1.4375 1.4414 1.4375zm-10.352-2.8789h8.9102v-8.9141h-8.9102zm-12.691 2.8789c0.79297 0 1.4336-0.64453 1.4336-1.4375v-11.793c0-0.79688-0.64062-1.4375-1.4336-1.4375h-11.793c-0.80078 0-1.4414 0.64453-1.4414 1.4375v11.793c0 0.79688 0.64062 1.4375 1.4414 1.4375zm-10.359-2.8789h8.918v-8.9141h-8.918zm-11.734 2.8789c0.79297 0 1.4336-0.64453 1.4336-1.4375v-11.793c0-0.79688-0.64062-1.4375-1.4336-1.4375h-11.793c-0.80078 0-1.4414 0.64453-1.4414 1.4375v11.793c0 0.79688 0.64062 1.4375 1.4414 1.4375zm-10.359-2.8789h8.918v-8.9141h-8.918zm14.258-80.059c0-0.87891 0.36328-1.6797 0.94531-2.2578 2.0352-2.0352 5.4531-0.54297 5.4531 2.2578v9.5469c0 0.87891-0.36328 1.6797-0.9375 2.2578-2.0352 2.0352-5.4609 0.54297-5.4609-2.2578zm-20.328 23.82v58.266c0 2.1797 1.7773 3.957 3.9531 3.957h81.332c2.1758 0 3.9531-1.7812 3.9531-3.957v-58.266z" fill-rule="evenodd"/>
    </symbol>
  </defs>
</svg>
